<svg xmlns="http://www.w3.org/2000/svg" xmlns:xlink="http://www.w3.org/1999/xlink" height="128" width="128"><defs><clipPath id="b"><path d="M0 0h192v152H0z"/></clipPath><clipPath id="C"><path d="M0 0h128v128H0z"/></clipPath><clipPath id="d"><path d="M0 0h192v152H0z"/></clipPath><clipPath id="e"><path d="M0 0h192v152H0z"/></clipPath><clipPath id="f"><path d="M0 0h192v152H0z"/></clipPath><clipPath id="I"><path d="M88 80h28v28H88zm0 0"/></clipPath><clipPath id="J"><path d="M116 80l-28 28h-8V72h36zm0 0"/></clipPath><clipPath id="E"><path d="M0 0h128v128H0z"/></clipPath><clipPath id="g"><path d="M0 0h192v152H0z"/></clipPath><clipPath id="c"><path d="M0 0h192v152H0z"/></clipPath><clipPath id="h"><path d="M0 0h192v152H0z"/></clipPath><clipPath id="i"><path d="M0 0h192v152H0z"/></clipPath><clipPath id="j"><path d="M0 0h192v152H0z"/></clipPath><clipPath id="k"><path d="M0 0h192v152H0z"/></clipPath><clipPath id="w"><path d="M88 80h28v28H88zm0 0"/></clipPath><clipPath id="x"><path d="M116 80l-28 28h-8V72h36zm0 0"/></clipPath><clipPath id="l"><path d="M0 0h128v128H0z"/></clipPath><clipPath id="z"><path d="M0 0h128v128H0z"/></clipPath><mask id="P"><g filter="url(#a)"><path fill-opacity=".5" d="M0 0h128v128H0z"/></g></mask><mask id="s"><g filter="url(#a)"><path fill-opacity=".5" d="M0 0h128v128H0z"/></g></mask><mask id="o"><g filter="url(#a)"><path fill-opacity=".1" d="M0 0h128v128H0z"/></g></mask><mask id="u"><g filter="url(#a)"><path fill-opacity=".154" d="M0 0h128v128H0z"/></g></mask><mask id="m"><g filter="url(#a)"><path fill-opacity=".3" d="M0 0h128v128H0z"/></g></mask><mask id="Q"><g filter="url(#a)"><path fill-opacity=".154" d="M0 0h128v128H0z"/></g></mask><mask id="O"><g filter="url(#a)"><path fill-opacity=".154" d="M0 0h128v128H0z"/></g></mask><mask id="N"><g filter="url(#a)"><path fill-opacity=".1" d="M0 0h128v128H0z"/></g></mask><mask id="q"><g filter="url(#a)"><path fill-opacity=".154" d="M0 0h128v128H0z"/></g></mask><mask id="L"><use xlink:href="#B"/></mask><mask id="F"><g filter="url(#a)"><path fill-opacity=".8" d="M0 0h128v128H0z"/></g></mask><mask id="H"><g filter="url(#a)"><path fill-opacity=".3" d="M0 0h128v128H0z"/></g></mask><g clip-path="url(#e)" id="t"><path d="M22.063 40.063C22.063 56.597 35.465 70 52 70c16.535 0 29.938-13.402 29.938-29.938 0-16.535-13.403-29.937-29.938-29.937-16.535 0-29.938 13.402-29.938 29.938zm0 0" fill="#fff"/></g><g clip-path="url(#C)" id="G"><path d="M128 80.64V128H0V80.64zm0 0" fill="url(#D)"/><path d="M13.309 80.64L60.664 128H81.88l-47.36-47.36zm42.421 0L103.094 128h21.215L76.945 80.64zm42.43 0L128 110.48V89.27l-8.629-8.63zM0 88.548v21.215L18.238 128h21.215zm0 0"/></g><g clip-path="url(#b)" id="n" fill="none" stroke-width="2" stroke="#d5d3cf"><path d="M28 19h72M28 29h72M28 39h72M28 49h72M28 59h72M28 69h72M28 79h72M28 89h72M28 99h66"/></g><g clip-path="url(#l)" id="A"><path d="M108 116H20a8 8 0 01-8-8V28a8 8 0 018-8h88a8 8 0 018 8v80a8 8 0 01-8 8zm0 0" fill="#1a5fb4"/><path d="M108 114H20a8 8 0 01-8-8V26a8 8 0 018-8h88a8 8 0 018 8v80a8 8 0 01-8 8zm0 0" fill="#d5d3cf"/><path d="M108 108H20a8 8 0 01-8-8V20a8 8 0 018-8h88a8 8 0 018 8v80a8 8 0 01-8 8zm0 0" fill="#f6f5f4"/><path d="M110 80a1.999 1.999 0 11-4 0 1.999 1.999 0 114 0zm0 0M110 70a1.999 1.999 0 11-4 0 1.999 1.999 0 114 0zm0 0M110 60a1.999 1.999 0 11-4 0 1.999 1.999 0 114 0zm0 0M110 50a1.999 1.999 0 11-4 0 1.999 1.999 0 114 0zm0 0M110 40a1.999 1.999 0 11-4 0 1.999 1.999 0 114 0zm0 0M110 30a1.999 1.999 0 11-4 0 1.999 1.999 0 114 0zm0 0M110 20a1.999 1.999 0 11-4 0 1.999 1.999 0 114 0zm0 0M22 100a1.999 1.999 0 11-4 0 1.999 1.999 0 114 0zm0 0M22 90a1.999 1.999 0 11-4 0 1.999 1.999 0 114 0zm0 0M22 80a1.999 1.999 0 11-4 0 1.999 1.999 0 114 0zm0 0M22 70a1.999 1.999 0 11-4 0 1.999 1.999 0 114 0zm0 0M22 60a1.999 1.999 0 11-4 0 1.999 1.999 0 114 0zm0 0M22 50a1.999 1.999 0 11-4 0 1.999 1.999 0 114 0zm0 0M22 40a1.999 1.999 0 11-4 0 1.999 1.999 0 114 0zm0 0M22 30a1.999 1.999 0 11-4 0 1.999 1.999 0 114 0zm0 0M22 20a1.999 1.999 0 11-4 0 1.999 1.999 0 114 0zm0 0" fill="#d5d3cf"/><use mask="url(#m)" xlink:href="#n"/><use mask="url(#o)" xlink:href="#p"/><use mask="url(#q)" xlink:href="#r"/><path d="M30 64l-8 8" fill="none" stroke-width="6" stroke="#949390"/><path d="M30 62l-8 8" fill="none" stroke-width="6" stroke="#d5d3cf"/><path d="M22 72L8 86" fill="none" stroke-width="12" stroke-linecap="round" stroke="#241f31"/><path d="M22 70L8 84" fill="none" stroke-width="12" stroke-linecap="round" stroke="#424048"/><use mask="url(#s)" xlink:href="#t"/><path d="M82.117 42c0 16.633-13.484 30.117-30.117 30.117-16.633 0-30.117-13.484-30.117-30.117 0-16.633 13.484-30.117 30.117-30.117 16.633 0 30.117 13.484 30.117 30.117zm0 0" fill="none" stroke-width="3.765" stroke-linejoin="round" stroke="#1a5fb4"/><path d="M82.117 40c0 16.633-13.484 30.117-30.117 30.117-16.633 0-30.117-13.484-30.117-30.117C21.883 23.367 35.367 9.883 52 9.883c16.633 0 30.117 13.484 30.117 30.117zm0 0" fill="none" stroke-width="3.765" stroke-linejoin="round" stroke="#62a0ea"/><use mask="url(#u)" xlink:href="#v"/><g clip-path="url(#w)"><g clip-path="url(#x)"><path d="M88 88v20a8 8 0 008 8h20a8 8 0 008-8V88a8 8 0 00-8-8H96a8 8 0 00-8 8zm0 0" fill="url(#y)"/></g></g></g><g clip-path="url(#d)" id="r"><path d="M5.89 82.55l15.458-15.456" fill="none" stroke-width="1.638" stroke-linecap="round" stroke="#fff"/></g><g filter="url(#a)" clip-path="url(#z)" id="B"><use xlink:href="#A"/></g><g clip-path="url(#f)" id="v"><path d="M5 83l16-16" fill="none" stroke-width="2" stroke-linecap="round" stroke="#fff"/></g><g clip-path="url(#c)" id="p" fill="none" stroke="#00000f"><path d="M30 66l-8 8" stroke-width="6"/><path d="M22 74L8 88" stroke-width="12" stroke-linecap="round"/><path d="M82.117 44c0 16.633-13.484 30.117-30.117 30.117-16.633 0-30.117-13.484-30.117-30.117 0-16.633 13.484-30.117 30.117-30.117 16.633 0 30.117 13.484 30.117 30.117zm0 0" stroke-width="3.765" stroke-linejoin="round"/></g><g clip-path="url(#E)" id="M"><use mask="url(#F)" xlink:href="#G"/></g><linearGradient gradientTransform="matrix(0 .37 -.98462 0 295.385 -30.36)" y2="235" x2="428" y1="235" x1="300" gradientUnits="userSpaceOnUse" id="D"><stop offset="0" stop-color="#f9f06b"/><stop offset="1" stop-color="#f5c211"/></linearGradient><linearGradient gradientTransform="matrix(0 .25 .25 0 83 8)" y2="72" x2="340" y1="76" x1="344" gradientUnits="userSpaceOnUse" id="y"><stop offset="0" stop-color="#d5d3cf"/><stop offset="1" stop-color="#fff"/></linearGradient><linearGradient gradientTransform="matrix(0 .25 .25 0 83 8)" y2="72" x2="340" y1="76" x1="344" gradientUnits="userSpaceOnUse" id="K"><stop offset="0" stop-color="#d5d3cf"/><stop offset="1" stop-color="#fff"/></linearGradient><filter height="100%" width="100%" y="0%" x="0%" filterUnits="objectBoundingBox" id="a"><feColorMatrix values="0 0 0 0 1 0 0 0 0 1 0 0 0 0 1 0 0 0 1 0" in="SourceGraphic"/></filter></defs><path d="M108 116H20a8 8 0 01-8-8V28a8 8 0 018-8h88a8 8 0 018 8v80a8 8 0 01-8 8zm0 0" fill="#1a5fb4"/><path d="M108 114H20a8 8 0 01-8-8V26a8 8 0 018-8h88a8 8 0 018 8v80a8 8 0 01-8 8zm0 0" fill="#d5d3cf"/><path d="M108 108H20a8 8 0 01-8-8V20a8 8 0 018-8h88a8 8 0 018 8v80a8 8 0 01-8 8zm0 0" fill="#f6f5f4"/><path d="M110 80a1.999 1.999 0 11-4 0 1.999 1.999 0 114 0zm0 0M110 70a1.999 1.999 0 11-4 0 1.999 1.999 0 114 0zm0 0M110 60a1.999 1.999 0 11-4 0 1.999 1.999 0 114 0zm0 0M110 50a1.999 1.999 0 11-4 0 1.999 1.999 0 114 0zm0 0M110 40a1.999 1.999 0 11-4 0 1.999 1.999 0 114 0zm0 0M110 30a1.999 1.999 0 11-4 0 1.999 1.999 0 114 0zm0 0M110 20a1.999 1.999 0 11-4 0 1.999 1.999 0 114 0zm0 0M22 100a1.999 1.999 0 11-4 0 1.999 1.999 0 114 0zm0 0" fill="#d5d3cf"/><use mask="url(#H)" xlink:href="#n"/><path d="M22 90a1.999 1.999 0 11-4 0 1.999 1.999 0 114 0zm0 0M22 80a1.999 1.999 0 11-4 0 1.999 1.999 0 114 0zm0 0M22 70a1.999 1.999 0 11-4 0 1.999 1.999 0 114 0zm0 0M22 60a1.999 1.999 0 11-4 0 1.999 1.999 0 114 0zm0 0M22 50a1.999 1.999 0 11-4 0 1.999 1.999 0 114 0zm0 0M22 40a1.999 1.999 0 11-4 0 1.999 1.999 0 114 0zm0 0M22 30a1.999 1.999 0 11-4 0 1.999 1.999 0 114 0zm0 0" fill="#d5d3cf"/><g clip-path="url(#I)"><g clip-path="url(#J)"><path d="M88 88v20a8 8 0 008 8h20a8 8 0 008-8V88a8 8 0 00-8-8H96a8 8 0 00-8 8zm0 0" fill="url(#K)"/></g></g><use mask="url(#L)" xlink:href="#M"/><path d="M22 20a1.999 1.999 0 11-4 0 1.999 1.999 0 114 0zm0 0" fill="#d5d3cf"/><use mask="url(#N)" xlink:href="#p"/><use mask="url(#O)" xlink:href="#r"/><path d="M30 64l-8 8" fill="none" stroke-width="6" stroke="#949390"/><path d="M30 62l-8 8" fill="none" stroke-width="6" stroke="#d5d3cf"/><path d="M22 72L8 86" fill="none" stroke-width="12" stroke-linecap="round" stroke="#241f31"/><path d="M22 70L8 84" fill="none" stroke-width="12" stroke-linecap="round" stroke="#424048"/><use mask="url(#P)" xlink:href="#t"/><path d="M82.117 42c0 16.633-13.484 30.117-30.117 30.117-16.633 0-30.117-13.484-30.117-30.117 0-16.633 13.484-30.117 30.117-30.117 16.633 0 30.117 13.484 30.117 30.117zm0 0" fill="none" stroke-width="3.765" stroke-linejoin="round" stroke="#1a5fb4"/><path d="M82.117 40c0 16.633-13.484 30.117-30.117 30.117-16.633 0-30.117-13.484-30.117-30.117C21.883 23.367 35.367 9.883 52 9.883c16.633 0 30.117 13.484 30.117 30.117zm0 0" fill="none" stroke-width="3.765" stroke-linejoin="round" stroke="#62a0ea"/><use mask="url(#Q)" xlink:href="#v"/></svg>